<!DOCTYPE svg PUBLIC "-//W3C//DTD SVG 1.1//EN" "http://www.w3.org/Graphics/SVG/1.1/DTD/svg11.dtd">
<!-- Uploaded to: SVG Repo, www.svgrepo.com, Transformed by: SVG Repo Mixer Tools -->
<svg fill="#00ed3e" width="64px" height="64px" viewBox="-1.28 -1.28 18.56 18.56" data-name="Layer 1" id="Layer_1" xmlns="http://www.w3.org/2000/svg" transform="rotate(0)" stroke="#00ed3e" stroke-width="0.368">
<g id="SVGRepo_bgCarrier" stroke-width="0">
<rect x="-1.28" y="-1.28" width="18.56" height="18.56" rx="9.28" fill="#b400e6" strokewidth="0"/>
</g>
<g id="SVGRepo_tracerCarrier" stroke-linecap="round" stroke-linejoin="round"/>
<g id="SVGRepo_iconCarrier">
<title/>
<ellipse cx="6" cy="5.5" rx="1" ry="1.5"/>
<ellipse cx="10" cy="5.5" rx="1" ry="1.5"/>
<path d="M8.071,13.071A5.076,5.076,0,0,1,3,8H4.143A3.929,3.929,0,1,0,12,8h1.143A5.077,5.077,0,0,1,8.071,13.071Z"/>
<path d="M8,1A7,7,0,1,1,1,8,7.008,7.008,0,0,1,8,1M8,0a8,8,0,1,0,8,8A8,8,0,0,0,8,0Z"/>
</g>
</svg>